<svg id="Layer_1" data-name="Layer 1" xmlns="http://www.w3.org/2000/svg" viewBox="0 0 939.901 130.875">
  <defs>
    <style>
      .cls-1 {
        fill: #c60e43;
      }

      .cls-2 {
        fill: #ff8700;
      }

      .cls-3 {
        fill: #feb800;
      }

      .cls-4 {
        fill: #feac00;
      }

      .cls-5 {
        fill: #fea000;
      }

      .cls-6 {
        fill: #ff9300;
      }

      .cls-7 {
        fill: #c81240;
      }

      .cls-8 {
        fill: #d22435;
      }

      .cls-9 {
        fill: #dc3629;
      }

      .cls-10 {
        fill: #e6471e;
      }

      .cls-11 {
        fill: #ef5912;
      }

      .cls-12 {
        fill: #f96907;
      }

      .cls-13 {
        fill: #ff7a00;
      }
    </style>
  </defs>
  <title>e427fe9c-d1d1-4cbc-9848-55a8e0f9f689</title>
  <g>
    <path d="M323.442,79.92v31.627a4.786,4.786,0,0,0,1.02,3.268,6.806,6.806,0,0,0,3.479,1.792v2.249H298v-2.249a7.188,7.188,0,0,0,3.514-1.828,4.762,4.762,0,0,0,.984-3.233V30.3a4.883,4.883,0,0,0-.984-3.3A7.212,7.212,0,0,0,298,25.168V22.919h59.882A77.865,77.865,0,0,1,374.5,24.325a29.213,29.213,0,0,1,10.859,4.85,24.338,24.338,0,0,1,7.59,9.418,30.615,30.615,0,0,1,2.741,12.792,28.581,28.581,0,0,1-5.2,17.009,24.364,24.364,0,0,1-11.913,8.891q-7.416,2.635-20.7,2.636Zm0-15.814h31.979q9.557,0,13.424-2.038a9.754,9.754,0,0,0,3.971-4.252,13.766,13.766,0,0,0,1.511-6.431,13.624,13.624,0,0,0-1.511-6.36,9.765,9.765,0,0,0-3.971-4.252q-3.795-2.038-13.424-2.038H323.442Z"/>
    <path d="M434.224,111.477V30.229A4.765,4.765,0,0,0,433.24,27a7.212,7.212,0,0,0-3.514-1.828V22.919h29.941v2.249a6.652,6.652,0,0,0-3.514,1.792,4.9,4.9,0,0,0-.984,3.268v81.248a4.9,4.9,0,0,0,1.02,3.338,6.806,6.806,0,0,0,3.479,1.792v2.249H429.726v-2.249a7.188,7.188,0,0,0,3.514-1.828A4.878,4.878,0,0,0,434.224,111.477Z"/>
    <path d="M548.87,38.733v72.744a4.871,4.871,0,0,0,.984,3.3,7.179,7.179,0,0,0,3.514,1.828v2.249h-29.94v-2.249a7.183,7.183,0,0,0,3.514-1.828,4.876,4.876,0,0,0,.984-3.3V38.733h-29.8a4.829,4.829,0,0,0-3.233.964,7.082,7.082,0,0,0-1.827,3.534h-2.249V18.421h2.249a7.707,7.707,0,0,0,1.862,3.53,4.673,4.673,0,0,0,3.2.968H578.6a4.936,4.936,0,0,0,3.3-.968,7.122,7.122,0,0,0,1.828-3.53h2.249v24.81h-2.249A7.1,7.1,0,0,0,581.9,39.7a4.951,4.951,0,0,0-3.3-.964Z"/>
    <path d="M697.887,76.967H642.573v34.58a4.789,4.789,0,0,0,1.019,3.268,6.807,6.807,0,0,0,3.479,1.792v2.249H617.13v-2.249a7.187,7.187,0,0,0,3.515-1.828,4.764,4.764,0,0,0,.983-3.233V30.229A4.767,4.767,0,0,0,620.645,27a7.212,7.212,0,0,0-3.515-1.828V22.919h29.941v2.249a6.659,6.659,0,0,0-3.515,1.792,4.9,4.9,0,0,0-.983,3.268V61.153h55.313V30.229a4.908,4.908,0,0,0-.984-3.268,6.655,6.655,0,0,0-3.515-1.792V22.919h29.941v2.249A7.212,7.212,0,0,0,719.814,27a4.762,4.762,0,0,0-.983,3.233v81.318a4.759,4.759,0,0,0,.983,3.233,7.187,7.187,0,0,0,3.515,1.828v2.249H693.388v-2.249a6.816,6.816,0,0,0,3.479-1.792,4.794,4.794,0,0,0,1.02-3.268Z"/>
    <path d="M766.708,111.477V30.229A4.767,4.767,0,0,0,765.725,27a7.212,7.212,0,0,0-3.515-1.828V22.919h29.941v2.249a6.659,6.659,0,0,0-3.515,1.792,4.9,4.9,0,0,0-.983,3.268v81.248a4.9,4.9,0,0,0,1.019,3.338,6.807,6.807,0,0,0,3.479,1.792v2.249H762.21v-2.249a7.187,7.187,0,0,0,3.515-1.828A4.881,4.881,0,0,0,766.708,111.477Z"/>
    <path d="M901.238,94.4h-43.6l-6.457,13.495a11.261,11.261,0,0,0-1.335,4.428q0,3.094,4.7,4.288v2.249H822.809v-2.249a8.5,8.5,0,0,0,4.287-1.968,19.294,19.294,0,0,0,3.374-5.482L865.752,35.43a14.038,14.038,0,0,0,1.687-5.623q0-3.232-4.076-4.639V22.919H897.38v2.249q-4.148,1.2-4.147,4.147a10.375,10.375,0,0,0,1.336,4.639l36.547,73.938a25.035,25.035,0,0,0,4.077,6.431,8.916,8.916,0,0,0,4.709,2.284v2.249H904.584v-2.249q4.651-.773,4.652-4.357a11.268,11.268,0,0,0-1.405-4.358Zm-6.025-13.143L879.654,47.08,863.847,81.255Z"/>
  </g>
  <g>
    <path class="cls-1" d="M49.949,114.776c44.728.8,60.184-36.731,66.087-51.756S128.211,33.327,138.6,21.608c11.862-13.379,37.177-18.833,60.854-11.2C189.717,4.944,172.8-3.433,151.12,1.495,133.155,5.578,120.2,13.12,105.553,37.9,91.49,22.441,76.577,11.215,52.712,11.215,16.165,11.215-.378,41.223.007,63.152.526,92.77,24.243,114.318,49.949,114.776ZM22.32,63.921c-.394-18.143,12.311-29.238,27.7-29.623,24.232-.606,32.556,13.569,41,25.593-6.752,18.2-17.11,31.841-37.54,32.5C39.687,92.834,22.7,81.618,22.32,63.921Z"/>
    <g>
      <path class="cls-2" d="M159.73,47.18,148.167,34.415c-.084-.081-.182-.183-.3-.309-2.541-2.831-4.043-3.418-5.863-1.659a35.516,35.516,0,0,0-2.464,3.1A94.815,94.815,0,0,0,130.333,53c-.824,2.227-.439,3.112,2.1,5.016a2.208,2.208,0,0,1,.17.141l13.132,9.611c.142.09.307.2.5.339,2.531,1.829,4.01,1.369,5.194-1.224,2.2-5.521,4.5-11,7.768-15.5.048-.084.1-.175.174-.277C160.622,49.272,160.324,48.049,159.73,47.18Z"/>
      <path class="cls-3" d="M71.37,126.515c-.516-1.363-2.011-.969-3.175-.659-8.2,2-19.938.142-28.219-1.077,9.805,4.128,22.57,6.978,31.533,5.846.556-.076,1.171-.618.722-1.893Z"/>
      <path class="cls-4" d="M103.27,117.406c-1-1.493-2.279-3.476-3.944-6.081-1.392-1.952-2.885-1.043-4.087-.145a86.713,86.713,0,0,1-19.146,11.627l-.009.007c-.894.479-2.059.791-1.318,2.879l.013.04.847,2.24c.025.059.051.123.076.2.019.056.039.109.059.16l0,.008c.524,1.33,1.4,1.3,2.433,1.095a94,94,0,0,0,24.547-8.834l.018-.012C103.478,120.2,104.37,119.178,103.27,117.406Z"/>
      <path class="cls-5" d="M127.07,95.988c-.106-.082-.2-.159-.281-.233l-9.062-7.379a2.467,2.467,0,0,0-3.576.486,89.983,89.983,0,0,1-12.317,16.214c-.8.937-1.04,1.993-.067,3.67,1.61,2.515,3.3,5.142,4.551,7.08.023.032.046.061.07.1a2.119,2.119,0,0,0,3.193.577,96.267,96.267,0,0,0,18.2-16.138C128.747,99.171,129.071,97.527,127.07,95.988Z"/>
      <path class="cls-6" d="M146.654,72.715l0,0L130.894,61.18c-1.71-1.233-3.47-.9-4.4,1.351-2.057,5.213-4.083,10.348-6.241,15.065-.562,1.176-1.132,2.314-1.705,3.428a3.105,3.105,0,0,0,.584,4.054l10.148,8.263c.042.031.087.066.136.106,2.447,2,4.118,1.308,5.752-.726l12.053-15.585C148.592,75.281,148.09,73.823,146.654,72.715Z"/>
      <path class="cls-7" d="M167.165,90.285a1.512,1.512,0,0,1-.156-.116c-4.279-2.813-8.4-5.94-12.245-8.9-.035-.024-.069-.045-.1-.074l-.248-.2-.572-.441c-2.545-1.906-3.483-1.754-4.964.063l-.553.715,0,0,0,0L139,93.388c-.029.042-.06.084-.1.132-2.168,2.768-2.458,4.123.658,6.349.046.033.086.065.123.1,4.872,3.457,9.959,6.873,15.18,9.978.058.027.123.06.193.1,2.433,1.348,4.714,3.128,6.746-.5L168.714,95.7a3.793,3.793,0,0,1,.16-.368C170.476,92.105,168.919,91.425,167.165,90.285Z"/>
      <path class="cls-8" d="M187.833,122.715c.149.023.291.042.432.06l.432.049c4.418.445,4.7-1.624,4.33-4.341l-2.441-15.205c-.6-3.617-1-3.742-4.081-4.394a39.006,39.006,0,0,1-9-2.859c-2.8-1.2-4.18-1.627-5.9,1.6l-6.361,12.749c-1.658,3.525-1.429,4.55,1.978,6.089.1.045.187.089.269.132a71.917,71.917,0,0,0,20.009,6.08C187.6,122.684,187.707,122.7,187.833,122.715Z"/>
      <path class="cls-9" d="M226.03,107.822c3.109-3.251,1.917-5.121-.833-6.954a.651.651,0,0,1-.109-.089l-13.624-9.3c-1.3-.714-2.454-.662-4.709,1.313a1.874,1.874,0,0,1-.21.16,23.579,23.579,0,0,1-8.476,5.223l-.129.05c-4.532,1.689-4.285,1.964-3.681,6.111.017.113.025.211.03.3l2.081,12.96c.6,3.47,1.379,5.151,4.36,4.962,8.758-1.46,17.245-5.9,25.1-14.5A2.2,2.2,0,0,1,226.03,107.822Z"/>
      <path class="cls-10" d="M240.367,68.947c-.008-.067-.014-.14-.016-.219,0-.046,0-.088-.007-.134-.011-.179-.022-.357-.035-.536-.374-4.291-2.911-3.53-6.411-3.107a.412.412,0,0,1-.135,0l-13.644,1.937c-4.437.7-3.463,1.338-3.749,6.506,0,.038-.007.069-.01.1a25.283,25.283,0,0,1-3.28,11.167c-1.048,2.309-.691,3.022,2.576,5.5l11.74,8.015c4.634,2.864,5.491.57,7.455-3l.037-.065A51.516,51.516,0,0,0,240.367,68.947Z"/>
      <path class="cls-11" d="M237.993,56.216q-.09-.285-.183-.57c-.347-1.025-.807-2.157-1.244-3.375-.026-.072-.049-.14-.071-.2a51.86,51.86,0,0,0-10.766-16.456c-.038-.035-.077-.073-.118-.116-.123-.128-.242-.251-.361-.372q-.783-.787-1.608-1.544c-3-2.633-4.2-1.864-7.024,1.342-.045.051-.087.1-.13.14l-8.994,10.191c-.039.052-.084.107-.135.166-3.319,3.815-2.422,4.454.1,7.165h0a33.39,33.39,0,0,1,5.4,7.011,2.937,2.937,0,0,1,.2.3c2.461,4.207,2.314,4.1,8.309,3.3a4.394,4.394,0,0,1,.533-.046L234.41,61.38C238.583,60.8,238.818,58.931,237.993,56.216Z"/>
      <path class="cls-12" d="M214.1,26.554a1.463,1.463,0,0,1-.134-.088,70.249,70.249,0,0,0-25.6-8.769c-2.852-.245-3.214.965-3.294,3.2l-.1,14.928c0,.053,0,.108.005.168.064,4.727.944,5.394,3.119,5.951.388.087.774.18,1.159.279.606.145,1.283.318,2.043.57.055.018.1.037.147.055a40.3,40.3,0,0,1,5.911,2.4c3.239,1.517,3.752,2.038,6.913-1.585a6.206,6.206,0,0,1,.473-.493l10.673-12.094C217.318,28.775,215.834,27.567,214.1,26.554Z"/>
      <path class="cls-13" d="M177.355,17.072c-.1,0-.187,0-.266,0-9.787.3-19.286,2.866-27.135,8.238-2.623,1.955-2.081,3.489-.854,5l11.031,12.178c2.509,2.667,3.995,3.108,6.578,1.746a22.212,22.212,0,0,1,6.6-2.561,28.832,28.832,0,0,1,4.575-.6c2.989-.245,3.535-.536,3.633-3.6l0,0,.1-15.338C181.63,17.647,180.261,16.93,177.355,17.072Z"/>
    </g>
  </g>
</svg>
